<?xml version="1.0" encoding="utf-8"?>
<!-- Generator: Adobe Illustrator 24.1.3, SVG Export Plug-In . SVG Version: 6.00 Build 0)  -->
<svg version="1.1" id="Layer_1" xmlns="http://www.w3.org/2000/svg" xmlns:xlink="http://www.w3.org/1999/xlink" x="0px" y="0px"
	 viewBox="0 0 800 176" style="enable-background:new 0 0 800 176;" xml:space="preserve">
<style type="text/css">
	.st0{fill:#EA4A6A;}
</style>
<g>
	<path class="st0" d="M265.4,101.3c0,5.1,0.2,10.3,0.7,15.5c0.4,5.2,1.6,9.9,3.6,14.1c1.9,4.2,4.8,7.7,8.5,10.4
		c3.7,2.7,8.9,4.1,15.6,4.1c6,0,11-1.1,15.1-3.2c4.1-2.1,7.4-4.6,10-7.4c2.6-2.8,4.5-5.5,5.8-8.2c1.3-2.7,2-4.7,2.1-6l3.1,1.1
		c-0.7,2.7-2,5.6-3.8,8.7c-1.8,3.1-4.2,5.9-7.4,8.6c-3.1,2.6-7,4.9-11.6,6.6c-4.6,1.8-10.2,2.7-16.7,2.7c-7.7,0-15-1.1-21.7-3.3
		c-6.7-2.2-12.5-5.4-17.5-9.6c-5-4.2-8.9-9.3-11.7-15.4c-2.8-6.1-4.2-13-4.2-20.7c0-6.1,1.3-12.1,4-18c2.7-5.9,6.4-11,11.1-15.5
		c4.7-4.5,10.2-8.1,16.5-10.9c6.3-2.8,13.1-4.2,20.4-4.2c5.2,0,10.4,0.8,15.6,2.4c5.2,1.6,9.9,4,14.1,7.3c4.2,3.3,7.6,7.5,10.3,12.7
		c2.7,5.2,4,11.5,4,18.7h-65.9V101.3z M301.1,74.3c0-1.6-0.1-3.5-0.2-5.8c-0.2-2.3-0.7-4.6-1.6-6.8c-0.9-2.3-2.3-4.2-4.4-5.8
		c-2-1.6-4.8-2.4-8.4-2.4c-5.1,0-9,1.1-11.7,3.4c-2.8,2.3-4.8,5.2-6.1,8.7c-1.3,3.5-2.2,7.3-2.6,11.3c-0.4,4.1-0.6,8-0.8,11.7h35.7
		V74.3z"/>
	<g>
		<path class="st0" d="M527.9,99.8c0-6.9,1.5-13.8,4.5-20.3c1-2.3,2.3-4.4,3.6-6.5V3.1h-36.1v2.8h8.8v63.5h-0.4
			c-2.2-5.6-5.4-9.7-9.6-12.5c-4.2-2.8-9.6-4.2-16.3-4.2c-8.6,0-16,1.5-22.1,4.5c-6.1,3-11.1,6.7-15.1,11.2
			c-3.9,4.5-6.8,9.4-8.7,14.7c-1.9,5.3-2.8,15.9-2.8,20.5c0,6,1.2,11.6,3.6,17.1c2.4,5.4,5.7,10.2,9.9,14.4c4.2,4.2,9.3,7.5,15.3,10
			c6,2.5,12.6,3.8,19.9,3.8c6.7,0,12.2-1.5,16.4-4.5c4.2-3,7.6-7.2,9.9-12.8h0.4l0,16.6h35.6v-3H536v-16.3c-1.2-1.9-2.4-3.9-3.3-6
			C529.5,116,527.9,108.3,527.9,99.8z M508.2,117.4c-0.4,5-1.5,9.6-3.2,13.9c-1.8,4.3-4.4,7.9-7.9,10.7c-3.5,2.8-8.4,4.3-14.6,4.3
			c-4.2,0-7.5-1-9.9-3c-2.5-2-4.3-4.8-5.6-8.5c-1.3-3.7-2.1-8.2-2.5-13.4c-0.4-5.2-0.6-11.1-0.6-17.6c0-8.4,0.2-19.3,1-25.8
			c0.7-5.5,1.8-9.9,3.5-13.2c1.6-3.3,3.8-5.7,6.4-7.1c2.6-1.5,5.8-2.2,9.5-2.2c5.5,0,9.9,1.4,13.2,4.2c3.3,2.8,5.7,6.3,7.4,10.5
			c1.6,4.2,2.7,8.9,3.2,13.9c0.5,5,0.8,15.3,0.8,19.7C508.7,107.9,508.5,112.4,508.2,117.4z"/>
	</g>
	<path class="st0" d="M666.5,52.4v18.8h0.4c2.7-5.7,6.3-10.5,10.8-14.6c4.5-4.1,10.5-6.1,18-6.1c6.2,0,11.3,1.7,15.2,5
		c3.9,3.3,5.8,8,5.8,14c0,4.5-1.1,8-3.2,10.5c-2.2,2.5-5.6,3.8-10.4,3.8c-3.4,0-6.6-0.7-9.4-2.1c-2.8-1.4-4.2-4.1-4.2-7.9
		c0-0.4,0.1-1.2,0.2-2.3c0.1-1.1,0.3-2.3,0.6-3.6c0.2-1.3,0.4-2.4,0.6-3.5c0.1-1,0.2-1.6,0.2-1.8c-0.2-1.2-0.4-2.1-0.7-2.8
		c-0.3-0.7-0.8-1.3-1.5-1.8c-0.7-0.5-1.7-0.8-3-0.8c-1.5,0-3.3,0.7-5.6,2.1c-2.2,1.4-4.3,3.5-6.3,6.1c-1.9,2.7-3.6,5.9-5,9.7
		c-1.4,3.8-2.1,8.1-2.1,12.8v57.1h8.9v3.1h-44.9v-3.1h8.8V55.6h-9.1v-3.1H666.5z"/>
	<path class="st0" d="M370.4,52.4v18.8h0.4c2.7-5.7,6.3-10.5,10.8-14.6c4.5-4.1,10.5-6.1,18-6.1c6.2,0,11.3,1.7,15.2,5
		c3.9,3.3,5.8,8,5.8,14c0,4.5-1.1,8-3.2,10.5c-2.2,2.5-5.6,3.8-10.4,3.8c-3.4,0-6.6-0.7-9.4-2.1c-2.8-1.4-4.2-4.1-4.2-7.9
		c0-0.4,0.1-1.2,0.2-2.3c0.1-1.1,0.3-2.3,0.6-3.6c0.2-1.3,0.4-2.4,0.6-3.5c0.1-1,0.2-1.6,0.2-1.8c-0.2-1.2-0.4-2.1-0.7-2.8
		c-0.3-0.7-0.8-1.3-1.5-1.8c-0.7-0.5-1.7-0.8-3-0.8c-1.5,0-3.3,0.7-5.6,2.1c-2.2,1.4-4.3,3.5-6.3,6.1c-1.9,2.7-3.6,5.9-5,9.7
		c-1.4,3.8-2.1,8.1-2.1,12.8V145h8.4v3.1h-44.5V145h8.9V55.5h-8.9v-3.1H370.4z"/>
	<path class="st0" d="M560.8,101.3c0,5.1,0.2,10.3,0.7,15.5c0.4,5.2,1.6,9.9,3.6,14.1c1.9,4.2,4.8,7.7,8.5,10.4
		c3.7,2.7,8.9,4.1,15.6,4.1c6,0,11-1.1,15.1-3.2c4.1-2.1,7.4-4.6,10-7.4c2.6-2.8,4.5-5.5,5.8-8.2c1.3-2.7,2-4.7,2.1-6l3.1,1.1
		c-0.7,2.7-2,5.6-3.8,8.7c-1.8,3.1-4.2,5.9-7.4,8.6c-3.1,2.6-7,4.9-11.6,6.6c-4.6,1.8-10.2,2.7-16.7,2.7c-7.7,0-15-1.1-21.7-3.3
		c-6.7-2.2-12.5-5.4-17.5-9.6c-5-4.2-8.9-9.3-11.7-15.4c-2.8-6.1-4.2-13-4.2-20.7c0-6.1,1.3-12.1,4-18c2.7-5.9,6.4-11,11-15.5
		c4.7-4.5,10.2-8.1,16.5-10.9c6.3-2.8,13.1-4.2,20.4-4.2c5.2,0,10.4,0.8,15.6,2.4c5.2,1.6,9.9,4,14.1,7.3c4.2,3.3,7.6,7.5,10.3,12.7
		c2.7,5.2,4,11.5,4,18.7h-65.9V101.3z M596.6,74.3c0-1.6-0.1-3.5-0.2-5.8c-0.2-2.3-0.7-4.6-1.6-6.8c-0.9-2.3-2.3-4.2-4.4-5.8
		c-2-1.6-4.8-2.4-8.4-2.4c-5.1,0-9,1.1-11.7,3.4c-2.8,2.3-4.8,5.2-6.1,8.7c-1.3,3.5-2.2,7.3-2.6,11.3c-0.4,4.1-0.6,8-0.8,11.7h35.7
		V74.3z"/>
	<g>
		<g>
			<path class="st0" d="M747.9,97.5c-11.7,0-21.3-8.3-21.3-22c0-14.3,10.3-25.1,25.4-25.1c10.3,0,16.2,4,16.2,10.4
				c0,4.6-3.1,6.7-7,6.7c-5.4,0-8-6-6.8-11.4V56c-0.5-0.3-1.5-0.6-2.6-0.6c-5.1,0-9.5,4.8-9.5,15.4c0,10.4,4.4,17.2,12.1,17.2
				c4.7,0,9.1-2.8,12.4-7l2.3,1.3C766.2,92,759,97.5,747.9,97.5z"/>
		</g>
		<g>
			<path class="st0" d="M748.1,148.2c-14.2,0-22.1-10-22.1-21.7c0-12.6,10.2-22.6,24.2-22.6c14.2,0,22,10.2,22,21.9
				C772.2,138.3,762.2,148.2,748.1,148.2z M753.2,110.5c-1.2-1.4-2.5-2-4.3-2c-4.7,0-7.6,6-7.6,15.8c0,8.7,0.5,14.6,3.5,17.6
				c1.1,1.1,3.1,1.6,4.5,1.6c4.7,0,7.7-6.6,7.7-15.8C757,119.4,755.7,113,753.2,110.5z"/>
		</g>
	</g>
	<g>
		<path class="st0" d="M786,148.2c-4.4,0-7.9-3.5-7.9-7.9c0-4.4,3.5-8,7.9-8c4.3,0,7.9,3.7,7.9,8C793.8,144.6,790.4,148.2,786,148.2
			z"/>
	</g>
	<polygon class="st0" points="421.5,145 421.5,91.6 394.6,91.6 394.6,145 386,145 386,148.1 394.6,148.1 394.9,148.1 421.3,148.1 
		421.5,148.1 430.2,148.1 430.2,145 	"/>
	<g>
		<path class="st0" d="M76.3,6.9c-3-3-6.6-4.5-10.7-4.5c-4.1,0-7.7,1.5-10.7,4.5c-3,3-4.5,6.6-4.5,10.7c0,4.1,1.5,7.7,4.5,10.7
			c3,3,6.5,4.5,10.7,4.5c4.1,0,7.7-1.5,10.7-4.5c3-3,4.5-6.6,4.5-10.7C80.8,13.5,79.3,9.9,76.3,6.9z"/>
		<path class="st0" d="M47,30.4c0-11.9,0.3-23.4,7.9-30.4c-21.8-1-36,12.6-39.1,39.4c-0.5,4.1-0.7,8.4-0.7,12.6
			c-0.1,26.2,0,59-0.1,85.2c-1.3,12-0.4,25.5-8.9,31.6c14.3,2.6,35.7-8.9,40.6-30.5l0.2-1.6c-0.1-16.5-0.1-30.6-0.1-48.1h17.7
			l4.3-6.7H47C47,65.7,47,46.1,47,30.4z"/>
	</g>
	<path class="st0" d="M224.8,126.5c-1.3,2.7-3.2,5.5-5.8,8.2c-2.6,2.8-6,5.2-10,7.4c-4.1,2.1-9.1,3.2-15.1,3.2
		c-6.7,0-11.9-1.4-15.6-4.1c-3.7-2.7-6.6-6.2-8.5-10.4c-1.9-4.2-3.1-8.9-3.6-14.1c-0.4-5.2-0.7-10.4-0.7-15.5v-9.6h65.9
		c0-7.3-1.3-13.5-4-18.7c-2.7-5.2-6.1-9.5-10.3-12.7c-4.2-3.3-8.9-5.7-14.1-7.3c-5.2-1.6-10.4-2.4-15.6-2.4
		c-7.3,0-14.1,1.4-20.4,4.2c-2.9,1.3-5.5,2.7-8.1,4.3c1.5,3,2.3,6.4,2.3,10.3c0,5.1-1.3,9.3-3.9,12.3c-2.7,3.2-6.9,4.8-12.6,4.8
		c-2.5,0-4.8-0.4-7-1c-1.5,4.5-2.3,9-2.3,13.7c0,7.7,1.4,14.6,4.2,20.7c2.8,6.1,6.7,11.2,11.7,15.4c5,4.2,10.8,7.4,17.5,9.6
		c6.7,2.2,13.9,3.3,21.7,3.3c6.5,0,12.1-0.9,16.7-2.7c4.6-1.8,8.5-4,11.6-6.6c3.1-2.6,5.6-5.5,7.4-8.6c1.8-3.1,3-6,3.8-8.7l-3.1-1.1
		C226.8,121.8,226.1,123.8,224.8,126.5z M166.4,77c0.4-4.1,1.2-7.8,2.6-11.3c1.3-3.5,3.4-6.4,6.1-8.7c2.8-2.3,6.7-3.4,11.7-3.4
		c3.6,0,6.4,0.8,8.4,2.4c2,1.6,3.5,3.5,4.4,5.8c0.9,2.3,1.4,4.6,1.6,6.8c0.1,2.3,0.2,4.2,0.2,5.8v14.3h-35.7
		C165.7,84.9,166,81,166.4,77z"/>
	<path class="st0" d="M108.2,52.4v18.8h0.4c2.7-5.7,6.3-10.5,10.8-14.6c4.5-4.1,10.5-6.1,18-6.1c6.2,0,11.3,1.7,15.2,5
		c3.9,3.3,5.8,8,5.8,14c0,4.5-1.1,8-3.2,10.5c-2.2,2.5-5.6,3.8-10.4,3.8c-3.4,0-6.6-0.7-9.4-2.1c-2.8-1.4-4.2-4.1-4.2-7.9
		c0-0.4,0.1-1.2,0.2-2.3c0.1-1.1,0.3-2.3,0.6-3.6c0.2-1.3,0.4-2.4,0.6-3.5c0.1-1,0.2-1.6,0.2-1.8c-0.2-1.2-0.4-2.1-0.7-2.8
		c-0.3-0.7-0.8-1.3-1.5-1.8c-0.7-0.5-1.7-0.8-3-0.8c-1.5,0-3.3,0.7-5.6,2.1c-2.2,1.4-4.3,3.5-6.3,6.1c-1.9,2.7-3.6,5.9-5,9.7
		c-1.4,3.8-2.1,8.1-2.1,12.8V145h9v3.1H72.5V145h8.8V55.5h-8.8v-3.1H108.2z"/>
</g>
</svg>
