<?xml version="1.0" encoding="utf-8"?>
<!-- Generator: Adobe Illustrator 25.0.1, SVG Export Plug-In . SVG Version: 6.00 Build 0)  -->
<svg version="1.1" id="Bold" xmlns="http://www.w3.org/2000/svg" xmlns:xlink="http://www.w3.org/1999/xlink" x="0px" y="0px"
	 viewBox="0 0 512 512" style="enable-background:new 0 0 512 512;" xml:space="preserve">
<style type="text/css">
	.st0{fill:#FFFFFF;}
</style>
<g>
	<path class="st0" d="M229.6,317.7c-10,52.6-22.3,103-58.6,129.3c-11.2-79.5,16.4-139.2,29.3-202.6c-21.9-36.9,2.6-111,48.8-92.7
		c56.8,22.5-49.2,137,22,151.3c74.3,14.9,104.6-128.9,58.6-175.7c-66.6-67.6-193.8-1.5-178.2,95.2c3.8,23.6,28.2,30.8,9.8,63.5
		c-42.6-9.4-55.3-43.1-53.7-87.9c2.6-73.3,65.9-124.7,129.3-131.8c80.2-9,155.6,29.5,166,104.9c11.7,85.2-36.2,177.5-122,170.8
		C257.6,340.3,247.8,328.7,229.6,317.7z"/>
	<path class="st0" d="M256,512C114.8,512,0,397.2,0,256C0,114.8,114.8,0,256,0c141.2,0,256,114.8,256,256
		C512,397.2,397.2,512,256,512z M256,14.6C122.9,14.6,14.6,122.9,14.6,256S122.9,497.4,256,497.4c133.1,0,241.4-108.3,241.4-241.4
		S389.1,14.6,256,14.6z"/>
</g>
</svg>
