<?xml version="1.0" encoding="utf-8"?>
<!-- Generator: Adobe Illustrator 24.2.1, SVG Export Plug-In . SVG Version: 6.00 Build 0)  -->
<svg version="1.1" id="Layer_1" xmlns="http://www.w3.org/2000/svg" xmlns:xlink="http://www.w3.org/1999/xlink" x="0px" y="0px"
	 viewBox="0 0 512 512" style="enable-background:new 0 0 512 512;" xml:space="preserve">
<style type="text/css">
	.st0{fill:#F87B75;}
</style>
<path class="st0" d="M465.6,0H46.4C20.8,0,0,20.8,0,46.4v419.4C0,491.2,20.8,512,46.4,512h419.4c25.6,0,46.4-20.8,46.4-46.4V46.4
	C512,20.8,491.2,0,465.6,0z M158.4,442c0,7.5-6,13.5-13.5,13.5H87.5c-7.5,0-13.5-6-13.5-13.5V201.6c0-7.5,6-13.5,13.5-13.5h57.4
	c7.5,0,13.5,6,13.5,13.5C158.4,201.6,158.4,442,158.4,442z M116.2,165.4c-30.2,0-54.6-24.4-54.6-54.6S86,56.3,116.2,56.3
	s54.6,24.4,54.6,54.6S146.3,165.4,116.2,165.4z M458.2,443.2c0,6.8-5.5,12.3-12.3,12.3h-61.5c-6.8,0-12.3-5.5-12.3-12.3V330.4
	c0-16.9,5-73.7-44-73.7c-37.9,0-45.7,39-47.2,56.4v130.1c0,6.8-5.5,12.3-12.3,12.3h-59.5c-6.8,0-12.3-5.5-12.3-12.3V200.5
	c0-6.8,5.5-12.3,12.3-12.3h59.5c6.8,0,12.3,5.5,12.3,12.3v21c14.1-21.2,35-37.4,79.5-37.4c98.6,0,98,92.1,98,142.7L458.2,443.2
	L458.2,443.2z"/>
</svg>
