<?xml version="1.0" encoding="utf-8"?>
<!-- Generator: Adobe Illustrator 24.1.2, SVG Export Plug-In . SVG Version: 6.00 Build 0)  -->
<svg version="1.1" id="Bold" xmlns="http://www.w3.org/2000/svg" xmlns:xlink="http://www.w3.org/1999/xlink" x="0px" y="0px"
	 viewBox="0 0 512 512" style="enable-background:new 0 0 512 512;" xml:space="preserve">
<style type="text/css">
	.st0{fill:#EA4A6A;}
</style>
<path class="st0" d="M437.3,32.1c-71-2.6-119,38.1-144.3,121.5c13-5.8,25.7-8.4,37.9-8.4c26,0,37.5,14.9,34.4,44.4
	c-1.5,17.9-13,43.9-34.4,78.2c-21.5,34.2-37.6,51.4-48.3,51.4c-32.5,0-52-155.4-58.6-197.8c-9.2-59-33.7-86.6-73.5-82.7
	C113.9,42.1,50.1,107.9,0,152.5l24.1,31.4c22.9-16.3,36.3-24.4,40.1-24.4c39.9,0,59.2,135.8,90.2,236.8
	c20.8,55.7,45.7,83.6,75.8,83.6c48.3,0,107.1-45.7,176.9-137.3c67.3-87.6,102.2-156.7,104.4-207l0.3-0.2
	C514.6,68,490,33.4,437.3,32.1L437.3,32.1z"/>
</svg>
